inDegrees=no
num_controls=7
num_derivatives=13
num_iterations=106
num_multipliers=7
num_parameters=0
num_slacks=7
num_states=26
objective=5.533753
objective_accelerations=0.661608
objective_balance=0.043479
objective_effort=0.246826
objective_height=4.536928
objective_ligament=0.044912
solver_duration=1184.775511
status=Solve_Succeeded
success=true
DataType=double
version=3
OpenSimVersion=4.4-2022-07-23-0e9fedc
endheader
time	/jointset/ground_pelvis/pelvis_tilt/value	/jointset/ground_pelvis/pelvis_tx/value	/jointset/ground_pelvis/pelvis_ty/value	/jointset/hip_l/hip_flexion_l/value	/jointset/hip_l/hip_adduction_l/value	/jointset/hip_l/hip_rotation_l/value	/jointset/back/lumbar_extension/value	/jointset/patellofemoral_l/patellar_flexion_l/value	/jointset/knee_l/knee_flexion_l/value	/jointset/knee_l/knee_adduction_l/value	/jointset/knee_l/knee_rotation_l/value	/jointset/ankle_l/ankle_angle_l/value	/jointset/subtalar_l/subtalar_angle_l/value	/jointset/ground_pelvis/pelvis_tilt/speed	/jointset/ground_pelvis/pelvis_tx/speed	/jointset/ground_pelvis/pelvis_ty/speed	/jointset/hip_l/hip_flexion_l/speed	/jointset/hip_l/hip_adduction_l/speed	/jointset/hip_l/hip_rotation_l/speed	/jointset/back/lumbar_extension/speed	/jointset/patellofemoral_l/patellar_flexion_l/speed	/jointset/knee_l/knee_flexion_l/speed	/jointset/knee_l/knee_adduction_l/speed	/jointset/knee_l/knee_rotation_l/speed	/jointset/ankle_l/ankle_angle_l/speed	/jointset/subtalar_l/subtalar_angle_l/speed	/forceset/tau_hip_flexion_l	/forceset/tau_hip_adduction_l	/forceset/tau_hip_rotation_l	/forceset/tau_knee_flexion_l	/forceset/tau_ankle_angle_l	/forceset/tau_subtalar_angle_l	/forceset/tau_lumbar_extension	lambda_cid13_p0	lambda_cid13_p1	lambda_cid13_p2	lambda_cid13_p3	lambda_cid13_p4	lambda_cid13_p5	lambda_cid14_p0	/jointset/ground_pelvis/pelvis_tilt/accel	/jointset/ground_pelvis/pelvis_tx/accel	/jointset/ground_pelvis/pelvis_ty/accel	/jointset/hip_l/hip_flexion_l/accel	/jointset/hip_l/hip_adduction_l/accel	/jointset/hip_l/hip_rotation_l/accel	/jointset/back/lumbar_extension/accel	/jointset/patellofemoral_l/patellar_flexion_l/accel	/jointset/knee_l/knee_flexion_l/accel	/jointset/knee_l/knee_adduction_l/accel	/jointset/knee_l/knee_rotation_l/accel	/jointset/ankle_l/ankle_angle_l/accel	/jointset/subtalar_l/subtalar_angle_l/accel	gamma_cid13_p0	gamma_cid13_p1	gamma_cid13_p2	gamma_cid13_p3	gamma_cid13_p4	gamma_cid13_p5	gamma_cid14_p0
0	-0.04172336868133707	0.06988630391550706	0.8960399306042554	0.1955292361009247	-0.3210642483108504	-0.5020280645518802	-0.137903700187828	0.0701535092839299	0.07015350928391206	-0.1745323629561422	-0.1355650401367312	-0.06701017130107029	0.005043394856474391	0	0	0	0	0	0	0	0	0	0	0	0	0	0.1084182014377194	-0.1224495937984999	-0.03802560356521267	-0.2699273251123232	0.2623914223974401	-0.01579356454843338	-0.04778158655972567	48.87585006132004	-4.641873444234222	3.765979518016716	-29.92295661407697	-516.981356219692	-83.30074507885953	-40.40088692401707	-2.963293472732484	-0.8597389416334479	-0.8205785326500183	10.0208674358865	-2.283523439647612	3.572115209675598	-2.558724298630628	10.90431885941216	10.90431885941468	0.944696401327197	-0.6784424498323641	4.078597275485561	-0.2795032291895435	-3.845621303638308e-08	1.538435224835042e-07	1.391391127237531e-07	1.670619959288218e-08	-8.772995868076704e-09	-7.799600561459518e-08	-2.255857324782391e-09
0.01	-0.04186358376964833	0.06984487081843248	0.8960002104876562	0.1960116807072624	-0.3211764426127944	-0.5018477615060766	-0.1380362176333197	0.07068352697307273	0.07068352697331277	-0.1744883443953608	-0.1355915536426728	-0.06681102117497269	0.005028931183640827	-0.02795941003867922	-0.008165631540923724	-0.007916383108915934	0.09599568150972718	-0.02232692269936578	0.03590530953545133	-0.02622234107500535	0.1055121997916499	0.10551219979165	0.008766517903128573	-0.005251701121767035	0.0397475768349337	-0.002816021268071953	0.1066980030592742	-0.130001978601506	-0.03785964040126378	-0.2698057581066088	0.2590815176208786	-0.007854299558522983	-0.04594942382232069	48.07269799169317	-7.711388206181848	3.983624594035796	-30.79385664872817	-518.1000823223263	-90.00039978428195	-40.41125836755358	-2.699738740564035	-0.7768237409340973	-0.7730239233461742	9.314917083591252	-2.190529858118158	3.576430468323016	-2.611816805951074	10.30097028247807	10.30097028247663	0.8370951110392155	-0.4408729149642972	3.910471507016761	-0.2711847068358071	-9.245087443610103e-08	1.838105995296829e-07	2.435391630544622e-07	6.594810556028623e-08	-2.498853311115661e-07	-1.545362976123534e-07	-1.086492525961667e-08
0.02	-0.04228088775262339	0.06972541170982226	0.8958821553953001	0.1974392818435335	-0.3215085567763198	-0.5013130670362024	-0.1384225240483859	0.07225392660897569	0.07225392660896508	-0.1743577675279656	-0.1356690519537646	-0.06621686855661685	0.0049886006718825	-0.05541777892211174	-0.01560520230713017	-0.01566699515143277	0.1890313060225206	-0.04398397232021126	0.0708782847846126	-0.05075779391041928	0.2080763893207351	0.2080763893207165	0.01731166085547509	-0.0101969611081984	0.07900049845059581	-0.00517336778501354	0.104977804678788	-0.1375543634046666	-0.03769367723994625	-0.2696841911017643	0.2557716128437866	8.496543096102567e-05	-0.04411726108599193	47.33778513360179	-10.79520671400972	4.206243040216094	-31.90372788648012	-518.2617554706862	-96.51760139710549	-40.44171392490079	-2.863085241682112	-0.714526786691048	-0.787424319370332	9.428856036499289	-2.149548823944989	3.385648352417482	-2.22134665071158	10.31471680689926	10.31471680689805	0.9004214111675917	-0.6171542227655956	3.979666231629531	-0.1877682789659414	-1.46445535835819e-07	2.137776765758616e-07	3.479392133851712e-07	1.151900115276903e-07	-4.909976663550555e-07	-2.310765896101117e-07	-1.947399319445094e-08
0.03	-0.04296977770175779	0.06953383051791805	0.8956871163890299	0.199784347906051	-0.322053670714206	-0.5004339253910856	-0.1390463056450121	0.07483619319874886	0.07483619319864131	-0.1741423593824599	-0.1357956218854378	-0.0652339106898787	0.004926531546730418	-0.08218324822954391	-0.02272391370838029	-0.02333660384414848	0.2795979858482933	-0.06490239514961969	0.1048031928311519	-0.07381834933885338	0.3079188297370082	0.3079188297370076	0.02576562798790832	-0.01509007375988601	0.1173619650314473	-0.00721939118087184	0.09874035611703182	-0.1283874355358783	-0.03618838743925636	-0.2598264769265536	0.2432975547467592	-0.001334651863550642	-0.03933401427887988	43.28300496468869	-9.721067654003747	4.323254608847235	-28.81604687439128	-518.2513093759006	-93.74729290891193	-40.49091010887692	-2.55674928548816	-0.7124517285280353	-0.7561979792344211	8.812961574139653	-2.042596167291038	3.37384013908322	-2.321383574723023	9.750296755035668	9.750296755039082	0.8173136227970969	-0.4213062854259612	3.730015062700979	-0.2099319845793113	-1.749804309486687e-07	2.377536571108388e-07	4.066933522233204e-07	1.41783042444963e-07	-6.475022165718357e-07	-2.80573388224559e-07	-2.12860987671762e-08
0.04	-0.04392101664608816	0.06927068052965898	0.8954154875288266	0.203023558290412	-0.3228038903113628	-0.4992199490438776	-0.1398952875131405	0.07840314201183693	0.07840314201182437	-0.1738425257139617	-0.1359703062435832	-0.06387421251905445	0.004844619664682339	-0.1078875779453726	-0.02991896157810148	-0.03098496593806624	0.36786017041485	-0.08500510417322177	0.1378452252101087	-0.0957978481996295	0.4050128339950417	0.4050128339950708	0.03419676546100174	-0.01981984637382894	0.1543485592677825	-0.009141919164093399	0.0925029075548629	-0.1192205076667087	-0.03468309763816007	-0.2499687627512165	0.2308234966500003	-0.002754269157509253	-0.0345507674725683	39.29197064494348	-8.655616145108842	4.438827314629211	-25.95141359695612	-517.3574000025027	-90.80042700181335	-40.55724876663981	-2.650857323360041	-0.7297940803864925	-0.7831749996107649	8.967956984656029	-1.986406062784039	3.209073218900869	-2.005135337179232	9.765029575251406	9.765029575252507	0.8958554792988714	-0.5844862152169614	3.704691762724696	-0.1630691964398252	-2.029903824267377e-07	2.616061098826985e-07	4.6450633824719e-07	1.679090862478e-07	-8.022622763756941e-07	-3.295125890372885e-07	-2.295806078604355e-08
